<svg xmlns="http://www.w3.org/2000/svg" width="1210" height="1552" viewBox="0 0 1210 1552">
<rect width="1210" height="1552" fill="#ffffff"/>
<g font-family="Helvetica Neue, Helvetica, Arial, sans-serif">
<text x="28" y="38" font-size="22" font-weight="600" fill="#22222a">Floor Plan - Capture single_scan_floor_only_video</text>
<text x="28" y="62" font-size="12" fill="#7a7a86">Tier: VIDEO | Total Floor Area: 173.63 m²</text>
<line x1="28" y1="82" x2="1182" y2="82" stroke="#dedcd4" stroke-width="1"/>
<polygon points="85.88,1466.12 85.88,181.88 558.20,181.88 1124.46,431.76 1123.21,1466.12 85.88,1466.12" stroke="none" fill="#22222a"/>
<polygon points="95.11,1456.89 95.11,191.11 556.26,191.11 1115.23,437.77 1114.00,1456.89" stroke="none" fill="#f4f1ea"/>
<text x="586.64" y="829.76" font-size="13.0" fill="#1b1b1f" text-anchor="middle" font-weight="bold">Room 01</text>
<text x="586.64" y="853.25" font-size="11.0" fill="#1b1b1f" text-anchor="middle" font-weight="normal">173.63 m2</text>
<text x="586.64" y="876.73" font-size="9.0" fill="#d98324" text-anchor="middle" font-weight="normal">ceiling unmeasured</text>
<text x="111.88" y="824.00" font-size="8.5" fill="#7a7a86" text-anchor="middle" font-weight="normal" transform="rotate(-270.00 111.88 824.00)">15.09 ±905.4cm</text>
<text x="325.68" y="207.88" font-size="8.5" fill="#7a7a86" text-anchor="middle" font-weight="normal">5.50 ±329.9cm</text>
<text x="828.97" y="329.79" font-size="8.5" fill="#7a7a86" text-anchor="middle" font-weight="normal" transform="rotate(23.81 828.97 329.79)">7.28 ±437.0cm</text>
<text x="1097.83" y="947.31" font-size="8.5" fill="#7a7a86" text-anchor="middle" font-weight="normal" transform="rotate(-89.93 1097.83 947.31)">12.15 ±729.0cm</text>
<text x="604.55" y="1440.12" font-size="8.5" fill="#7a7a86" text-anchor="middle" font-weight="normal">12.15 ±728.8cm</text>
<g><line x1="28" y1="1532" x2="447.4" y2="1532" stroke="#22222a" stroke-width="2"/><line x1="28" y1="1528" x2="28" y2="1536" stroke="#22222a" stroke-width="2"/><line x1="447.4" y1="1528" x2="447.4" y2="1536" stroke="#22222a" stroke-width="2"/><text x="455.4" y="1536" font-size="11" fill="#7a7a86">5 m</text></g>
</g></svg>