<svg xmlns="http://www.w3.org/2000/svg" width="1456" height="1532" viewBox="0 0 1456 1532">
<rect width="1456" height="1532" fill="#ffffff"/>
<g font-family="Helvetica Neue, Helvetica, Arial, sans-serif">
<text x="28" y="38" font-size="22" font-weight="600" fill="#22222a">Floor Plan - Capture c7d28f72c6</text>
<text x="28" y="62" font-size="12" fill="#7a7a86">Tier: LIDAR | Total Floor Area: 49.88 m²</text>
<line x1="28" y1="82" x2="1428" y2="82" stroke="#dedcd4" stroke-width="1"/>
<polygon points="126.62,1054.87 146.69,1054.87 146.69,1032.77 341.29,1032.77 341.29,954.74 113.60,954.74 113.60,745.64 159.68,745.64 159.68,660.28 160.51,660.28 160.51,632.91 349.05,632.91 349.05,797.98 481.81,797.98 481.81,650.45 465.13,650.45 465.13,447.29 234.27,447.29 234.27,209.60 616.21,209.60 616.21,679.76 873.97,679.76 873.97,668.59 1014.00,668.59 1014.00,517.50 1309.25,517.50 1309.25,522.48 1342.40,522.48 1342.40,810.57 1030.18,810.57 1030.18,896.69 1328.21,896.69 1328.21,1290.16 873.97,1290.16 873.97,1238.62 827.92,1238.62 827.92,1218.29 616.21,1218.29 616.21,1238.62 511.97,1238.62 511.97,1419.25 126.62,1419.25 126.62,1054.87" stroke="none" fill="#22222a"/>
<polygon points="540.11,1204.64 540.11,1224.98 602.56,1224.98 602.56,1204.64 841.57,1204.64 841.57,1224.98 875.59,1224.98 875.59,693.40 602.56,693.40 602.56,655.41 495.45,655.41 495.45,801.65 520.49,801.65 520.49,1204.64" stroke="none" fill="#f4f1ea"/>
<polygon points="887.62,1276.52 1314.56,1276.52 1314.56,910.34 887.62,910.34" stroke="none" fill="#eceadf"/>
<polygon points="140.26,1405.61 498.32,1405.61 498.32,1046.41 160.33,1046.41 160.33,1068.52 140.26,1068.52" stroke="none" fill="#f4f1ea"/>
<polygon points="1328.76,536.12 1328.76,796.92 1027.65,796.92 1027.65,531.15 1295.61,531.15 1295.61,536.12" stroke="none" fill="#eceadf"/>
<polygon points="602.56,433.65 602.56,223.24 247.92,223.24 247.92,433.65" stroke="none" fill="#f4f1ea"/>
<polygon points="335.41,941.09 127.24,941.09 127.24,759.29 173.33,759.29 173.33,673.92 174.16,673.92 174.16,646.55 335.41,646.55" stroke="none" fill="#eceadf"/>
<polygon points="354.93,1033.26 354.93,811.62 498.32,811.62 498.32,1033.26" stroke="none" fill="#f4f1ea"/>
<polygon points="1016.54,895.78 887.62,895.78 887.62,682.24 1016.54,682.24" stroke="none" fill="#eceadf"/>
<polygon points="478.77,636.81 478.77,450.72 602.56,450.72 602.56,636.81" stroke="none" fill="#f4f1ea"/>
<polygon points="779.62,1204.64 779.62,1218.29 722.56,1218.29 722.56,1204.64 779.62,1204.64" stroke="none" fill="#ffffff"/>
<line x1="722.56" y1="1209.42" x2="779.62" y2="1209.42" stroke="#3d6fa8" stroke-width="2.73" stroke-linejoin="round" stroke-linecap="round" fill="none"/>
<line x1="722.56" y1="1213.51" x2="779.62" y2="1213.51" stroke="#3d6fa8" stroke-width="2.73" stroke-linejoin="round" stroke-linecap="round" fill="none"/>
<polygon points="875.59,708.87 887.62,708.87 887.62,785.78 875.59,785.78 875.59,708.87" stroke="none" fill="#ffffff"/>
<line x1="875.59" y1="785.78" x2="798.67" y2="785.78" stroke="#8a8a96" stroke-width="1.49" stroke-linejoin="round" stroke-linecap="round" fill="none"/>
<path d="M 875.59 708.87 A 76.91 76.91 0 0 0 798.67 785.78" stroke="#8a8a96" stroke-width="1.24" stroke-linejoin="round" stroke-linecap="round" fill="none" stroke-dasharray="7.44,6.20"/>
<polygon points="495.45,789.24 481.81,789.24 481.81,667.67 495.45,667.67 495.45,789.24" stroke="none" fill="#ffffff"/>
<line x1="495.45" y1="667.67" x2="617.03" y2="667.67" stroke="#8a8a96" stroke-width="1.49" stroke-linejoin="round" stroke-linecap="round" fill="none"/>
<path d="M 495.45 789.24 A 121.57 121.57 0 0 0 617.03 667.67" stroke="#8a8a96" stroke-width="1.24" stroke-linejoin="round" stroke-linecap="round" fill="none" stroke-dasharray="7.44,6.20"/>
<polygon points="495.45,655.41 495.45,636.81 602.56,636.81 602.56,655.41 495.45,655.41" stroke="none" fill="#ffffff"/>
<line x1="602.56" y1="655.41" x2="602.56" y2="762.53" stroke="#8a8a96" stroke-width="1.49" stroke-linejoin="round" stroke-linecap="round" fill="none"/>
<path d="M 495.45 655.41 A 107.11 107.11 0 0 0 602.56 762.53" stroke="#8a8a96" stroke-width="1.24" stroke-linejoin="round" stroke-linecap="round" fill="none" stroke-dasharray="7.44,6.20"/>
<polygon points="1294.80,1276.52 1294.80,1290.16 1220.37,1290.16 1220.37,1276.52 1294.80,1276.52" stroke="none" fill="#ffffff"/>
<line x1="1220.37" y1="1281.30" x2="1294.80" y2="1281.30" stroke="#3d6fa8" stroke-width="2.73" stroke-linejoin="round" stroke-linecap="round" fill="none"/>
<line x1="1220.37" y1="1285.39" x2="1294.80" y2="1285.39" stroke="#3d6fa8" stroke-width="2.73" stroke-linejoin="round" stroke-linecap="round" fill="none"/>
<polygon points="887.62,910.34 887.62,895.78 1013.11,895.78 1013.11,910.34 887.62,910.34" stroke="none" fill="#ffffff"/>
<line x1="1013.11" y1="905.24" x2="887.62" y2="905.24" stroke="#3d6fa8" stroke-width="2.73" stroke-linejoin="round" stroke-linecap="round" fill="none"/>
<line x1="1013.11" y1="900.87" x2="887.62" y2="900.87" stroke="#3d6fa8" stroke-width="2.73" stroke-linejoin="round" stroke-linecap="round" fill="none"/>
<polygon points="379.62,1405.61 379.62,1419.25 178.65,1419.25 178.65,1405.61 379.62,1405.61" stroke="none" fill="#ffffff"/>
<polygon points="365.46,1046.41 365.46,1033.26 489.52,1033.26 489.52,1046.41 365.46,1046.41" stroke="none" fill="#ffffff"/>
<line x1="489.52" y1="1046.41" x2="489.52" y2="1170.47" stroke="#8a8a96" stroke-width="1.49" stroke-linejoin="round" stroke-linecap="round" fill="none"/>
<path d="M 365.46 1046.41 A 124.06 124.06 0 0 0 489.52 1170.47" stroke="#8a8a96" stroke-width="1.24" stroke-linejoin="round" stroke-linecap="round" fill="none" stroke-dasharray="7.44,6.20"/>
<polygon points="162.97,1046.41 162.97,1032.77 304.40,1032.77 304.40,1046.41 162.97,1046.41" stroke="none" fill="#ffffff"/>
<line x1="304.40" y1="1041.64" x2="162.97" y2="1041.64" stroke="#3d6fa8" stroke-width="2.73" stroke-linejoin="round" stroke-linecap="round" fill="none"/>
<line x1="304.40" y1="1037.54" x2="162.97" y2="1037.54" stroke="#3d6fa8" stroke-width="2.73" stroke-linejoin="round" stroke-linecap="round" fill="none"/>
<polygon points="463.98,223.24 463.98,209.60 588.04,209.60 588.04,223.24 463.98,223.24" stroke="none" fill="#ffffff"/>
<line x1="588.04" y1="223.24" x2="588.04" y2="347.30" stroke="#8a8a96" stroke-width="1.49" stroke-linejoin="round" stroke-linecap="round" fill="none"/>
<path d="M 463.98 223.24 A 124.06 124.06 0 0 0 588.04 347.30" stroke="#8a8a96" stroke-width="1.24" stroke-linejoin="round" stroke-linecap="round" fill="none" stroke-dasharray="7.44,6.20"/>
<polygon points="588.49,433.65 588.49,450.72 478.77,450.72 478.77,489.47 465.13,489.47 465.13,447.29 435.91,447.29 435.91,433.65 588.49,433.65" stroke="none" fill="#ffffff"/>
<line x1="435.91" y1="433.65" x2="435.91" y2="281.06" stroke="#8a8a96" stroke-width="1.49" stroke-linejoin="round" stroke-linecap="round" fill="none"/>
<path d="M 588.49 433.65 A 152.59 152.59 0 0 0 435.91 281.06" stroke="#8a8a96" stroke-width="1.24" stroke-linejoin="round" stroke-linecap="round" fill="none" stroke-dasharray="7.44,6.20"/>
<polygon points="887.62,821.79 875.59,821.79 875.59,715.11 887.62,715.11 887.62,821.79" stroke="none" fill="#ffffff"/>
<line x1="887.62" y1="821.79" x2="994.30" y2="821.79" stroke="#8a8a96" stroke-width="1.49" stroke-linejoin="round" stroke-linecap="round" fill="none"/>
<path d="M 994.30 821.79 A 106.69 106.69 0 0 0 887.62 715.11" stroke="#8a8a96" stroke-width="1.24" stroke-linejoin="round" stroke-linecap="round" fill="none" stroke-dasharray="7.44,6.20"/>
<polygon points="1016.54,703.21 1027.65,703.21 1027.65,787.57 1016.54,787.57 1016.54,703.21" stroke="none" fill="#ffffff"/>
<line x1="1016.54" y1="703.21" x2="932.18" y2="703.21" stroke="#8a8a96" stroke-width="1.49" stroke-linejoin="round" stroke-linecap="round" fill="none"/>
<path d="M 932.18 703.21 A 84.36 84.36 0 0 0 1016.54 787.57" stroke="#8a8a96" stroke-width="1.24" stroke-linejoin="round" stroke-linecap="round" fill="none" stroke-dasharray="7.44,6.20"/>
<polygon points="602.56,636.81 602.56,655.41 495.45,655.41 495.45,692.63 481.81,692.63 481.81,650.45 478.77,650.45 478.77,636.81 602.56,636.81" stroke="none" fill="#ffffff"/>
<polygon points="478.77,450.72 478.77,433.65 588.49,433.65 588.49,450.72 478.77,450.72" stroke="none" fill="#ffffff"/>
<text x="691.88" y="905.80" font-size="13.0" fill="#1b1b1f" text-anchor="middle" font-weight="bold">Room 01</text>
<text x="691.88" y="940.54" font-size="11.0" fill="#1b1b1f" text-anchor="middle" font-weight="normal">12.36 m2</text>
<text x="691.88" y="975.27" font-size="9.0" fill="#7a7a86" text-anchor="middle" font-weight="normal">h 3.064 m  [3.033, 3.096]</text>
<text x="722.07" y="1179.83" font-size="8.5" fill="#7a7a86" text-anchor="middle" font-weight="normal">1.93 ±3.7cm</text>
<text x="850.78" y="959.19" font-size="8.5" fill="#7a7a86" text-anchor="middle" font-weight="normal" transform="rotate(-90.00 850.78 959.19)">4.28 ±3.3cm</text>
<text x="739.08" y="718.21" font-size="8.5" fill="#7a7a86" text-anchor="middle" font-weight="normal" transform="rotate(-360.00 739.08 718.21)">2.20 ±3.8cm</text>
<text x="549.01" y="680.23" font-size="8.5" fill="#7a7a86" text-anchor="middle" font-weight="normal" transform="rotate(-360.00 549.01 680.23)">0.86 ±1.5cm</text>
<text x="520.26" y="728.53" font-size="8.5" fill="#7a7a86" text-anchor="middle" font-weight="normal" transform="rotate(90.00 520.26 728.53)">1.18 ±3.5cm</text>
<text x="545.30" y="1003.15" font-size="8.5" fill="#7a7a86" text-anchor="middle" font-weight="normal" transform="rotate(90.00 545.30 1003.15)">3.25 ±4.8cm</text>
<text x="1101.09" y="1056.21" font-size="13.0" fill="#1b1b1f" text-anchor="middle" font-weight="bold">Room 02</text>
<text x="1101.09" y="1090.95" font-size="11.0" fill="#1b1b1f" text-anchor="middle" font-weight="normal">10.16 m2</text>
<text x="1101.09" y="1125.68" font-size="9.0" fill="#7a7a86" text-anchor="middle" font-weight="normal">h 3.082 m  [3.068, 3.096]</text>
<text x="1101.09" y="1251.71" font-size="8.5" fill="#7a7a86" text-anchor="middle" font-weight="normal">3.44 ±4.2cm</text>
<text x="1289.75" y="1093.43" font-size="8.5" fill="#7a7a86" text-anchor="middle" font-weight="normal" transform="rotate(-90.00 1289.75 1093.43)">2.95 ±3.5cm</text>
<text x="1101.09" y="935.15" font-size="8.5" fill="#7a7a86" text-anchor="middle" font-weight="normal" transform="rotate(-360.00 1101.09 935.15)">3.44 ±4.0cm</text>
<text x="912.43" y="1093.43" font-size="8.5" fill="#7a7a86" text-anchor="middle" font-weight="normal" transform="rotate(90.00 912.43 1093.43)">2.95 ±2.9cm</text>
<text x="319.88" y="1189.38" font-size="13.0" fill="#1b1b1f" text-anchor="middle" font-weight="bold">Room 03</text>
<text x="319.88" y="1224.11" font-size="11.0" fill="#1b1b1f" text-anchor="middle" font-weight="normal">8.33 m2</text>
<text x="319.88" y="1258.85" font-size="9.0" fill="#7a7a86" text-anchor="middle" font-weight="normal">h 3.065 m  [3.045, 3.085]</text>
<text x="319.29" y="1380.80" font-size="8.5" fill="#7a7a86" text-anchor="middle" font-weight="normal">2.89 ±4.0cm</text>
<text x="473.51" y="1226.01" font-size="8.5" fill="#7a7a86" text-anchor="middle" font-weight="normal" transform="rotate(-90.00 473.51 1226.01)">2.90 ±3.4cm</text>
<text x="329.33" y="1071.23" font-size="8.5" fill="#7a7a86" text-anchor="middle" font-weight="normal" transform="rotate(-360.00 329.33 1071.23)">2.72 ±3.3cm</text>
<text x="165.08" y="1237.06" font-size="8.5" fill="#7a7a86" text-anchor="middle" font-weight="normal" transform="rotate(90.00 165.08 1237.06)">2.72 ±2.3cm</text>
<text x="1177.93" y="627.09" font-size="13.0" fill="#1b1b1f" text-anchor="middle" font-weight="bold">Room 04</text>
<text x="1177.93" y="661.82" font-size="11.0" fill="#1b1b1f" text-anchor="middle" font-weight="normal">5.19 m2</text>
<text x="1177.93" y="696.56" font-size="9.0" fill="#7a7a86" text-anchor="middle" font-weight="normal">h 2.343 m  [2.330, 2.357]</text>
<text x="1303.94" y="666.52" font-size="8.5" fill="#7a7a86" text-anchor="middle" font-weight="normal" transform="rotate(90.00 1303.94 666.52)">2.10 ±3.2cm</text>
<text x="1178.20" y="772.11" font-size="8.5" fill="#7a7a86" text-anchor="middle" font-weight="normal" transform="rotate(-360.00 1178.20 772.11)">2.43 ±2.9cm</text>
<text x="1052.46" y="664.03" font-size="8.5" fill="#7a7a86" text-anchor="middle" font-weight="normal" transform="rotate(-90.00 1052.46 664.03)">2.14 ±2.2cm</text>
<text x="1161.63" y="555.96" font-size="8.5" fill="#7a7a86" text-anchor="middle" font-weight="normal">2.16 ±4.6cm</text>
<text x="425.24" y="291.23" font-size="13.0" fill="#1b1b1f" text-anchor="middle" font-weight="bold">Room 05</text>
<text x="425.24" y="325.96" font-size="11.0" fill="#1b1b1f" text-anchor="middle" font-weight="normal">4.85 m2</text>
<text x="425.24" y="360.70" font-size="9.0" fill="#7a7a86" text-anchor="middle" font-weight="normal">h 2.406 m  [2.389, 2.423]</text>
<text x="577.75" y="328.45" font-size="8.5" fill="#7a7a86" text-anchor="middle" font-weight="normal" transform="rotate(-90.00 577.75 328.45)">1.70 ±3.8cm</text>
<text x="425.24" y="248.06" font-size="8.5" fill="#7a7a86" text-anchor="middle" font-weight="normal" transform="rotate(-360.00 425.24 248.06)">2.86 ±2.3cm</text>
<text x="272.73" y="328.45" font-size="8.5" fill="#7a7a86" text-anchor="middle" font-weight="normal" transform="rotate(90.00 272.73 328.45)">1.70 ±5.1cm</text>
<text x="425.24" y="408.84" font-size="8.5" fill="#7a7a86" text-anchor="middle" font-weight="normal">2.86 ±8.6cm</text>
<text x="238.85" y="765.08" font-size="13.0" fill="#1b1b1f" text-anchor="middle" font-weight="bold">Room 06</text>
<text x="238.85" y="799.81" font-size="11.0" fill="#1b1b1f" text-anchor="middle" font-weight="normal">3.64 m2</text>
<text x="238.85" y="834.55" font-size="9.0" fill="#7a7a86" text-anchor="middle" font-weight="normal">h 2.275 m  [2.254, 2.296]</text>
<text x="231.33" y="916.28" font-size="8.5" fill="#7a7a86" text-anchor="middle" font-weight="normal" transform="rotate(-360.00 231.33 916.28)">1.68 ±2.6cm</text>
<text x="152.06" y="850.19" font-size="8.5" fill="#7a7a86" text-anchor="middle" font-weight="normal" transform="rotate(-90.00 152.06 850.19)">1.47 ±1.7cm</text>
<text x="198.14" y="716.60" font-size="8.5" fill="#7a7a86" text-anchor="middle" font-weight="normal" transform="rotate(-90.00 198.14 716.60)">0.69 ±4.4cm</text>
<text x="254.78" y="671.36" font-size="8.5" fill="#7a7a86" text-anchor="middle" font-weight="normal">1.30 ±1.6cm</text>
<text x="310.60" y="793.82" font-size="8.5" fill="#7a7a86" text-anchor="middle" font-weight="normal" transform="rotate(90.00 310.60 793.82)">2.37 ±2.5cm</text>
<text x="426.63" y="885.23" font-size="13.0" fill="#1b1b1f" text-anchor="middle" font-weight="bold">Room 07</text>
<text x="426.63" y="919.96" font-size="11.0" fill="#1b1b1f" text-anchor="middle" font-weight="normal">2.06 m2</text>
<text x="426.63" y="954.70" font-size="9.0" fill="#7a7a86" text-anchor="middle" font-weight="normal">h 2.461 m  [2.447, 2.474]</text>
<text x="379.74" y="922.44" font-size="8.5" fill="#7a7a86" text-anchor="middle" font-weight="normal" transform="rotate(-90.00 379.74 922.44)">1.79 ±2.8cm</text>
<text x="426.63" y="836.43" font-size="8.5" fill="#7a7a86" text-anchor="middle" font-weight="normal">1.16 ±3.5cm</text>
<text x="473.51" y="922.44" font-size="8.5" fill="#7a7a86" text-anchor="middle" font-weight="normal" transform="rotate(90.00 473.51 922.44)">1.79 ±3.0cm</text>
<text x="426.63" y="1008.45" font-size="8.5" fill="#7a7a86" text-anchor="middle" font-weight="normal" transform="rotate(-360.00 426.63 1008.45)">1.16 ±3.5cm</text>
<text x="952.08" y="751.79" font-size="13.0" fill="#1b1b1f" text-anchor="middle" font-weight="bold">Room 08</text>
<text x="952.08" y="786.53" font-size="11.0" fill="#1b1b1f" text-anchor="middle" font-weight="normal">1.79 m2</text>
<text x="952.08" y="821.26" font-size="9.0" fill="#7a7a86" text-anchor="middle" font-weight="normal">h 2.462 m  [2.437, 2.488]</text>
<text x="952.08" y="870.97" font-size="8.5" fill="#7a7a86" text-anchor="middle" font-weight="normal" transform="rotate(-360.00 952.08 870.97)">1.04 ±3.1cm</text>
<text x="912.43" y="789.01" font-size="8.5" fill="#7a7a86" text-anchor="middle" font-weight="normal" transform="rotate(-90.00 912.43 789.01)">1.72 ±2.4cm</text>
<text x="952.08" y="707.05" font-size="8.5" fill="#7a7a86" text-anchor="middle" font-weight="normal">1.04 ±3.7cm</text>
<text x="991.73" y="789.01" font-size="8.5" fill="#7a7a86" text-anchor="middle" font-weight="normal" transform="rotate(90.00 991.73 789.01)">1.72 ±2.5cm</text>
<text x="540.67" y="506.55" font-size="13.0" fill="#1b1b1f" text-anchor="middle" font-weight="bold">Room 09</text>
<text x="540.67" y="541.28" font-size="11.0" fill="#1b1b1f" text-anchor="middle" font-weight="normal">1.50 m2</text>
<text x="540.67" y="576.02" font-size="9.0" fill="#7a7a86" text-anchor="middle" font-weight="normal">h 2.403 m  [2.358, 2.448]</text>
<text x="503.58" y="543.77" font-size="8.5" fill="#7a7a86" text-anchor="middle" font-weight="normal" transform="rotate(-90.00 503.58 543.77)">1.50 ±3.9cm</text>
<text x="540.67" y="475.53" font-size="8.5" fill="#7a7a86" text-anchor="middle" font-weight="normal">1.00 ±3.0cm</text>
<text x="577.75" y="543.77" font-size="8.5" fill="#7a7a86" text-anchor="middle" font-weight="normal" transform="rotate(90.00 577.75 543.77)">1.50 ±3.7cm</text>
<text x="540.67" y="612.00" font-size="8.5" fill="#7a7a86" text-anchor="middle" font-weight="normal" transform="rotate(-360.00 540.67 612.00)">1.00 ±3.0cm</text>
<line x1="319.88" y1="1226.59" x2="426.63" y2="922.44" stroke="#7a7a86" stroke-width="0.99" stroke-linejoin="round" stroke-linecap="round" fill="none" stroke-dasharray="12.41,12.41" opacity="0.50"/>
<line x1="691.88" y1="943.02" x2="426.63" y2="922.44" stroke="#7a7a86" stroke-width="0.99" stroke-linejoin="round" stroke-linecap="round" fill="none" stroke-dasharray="12.41,12.41" opacity="0.50"/>
<line x1="1101.09" y1="1093.43" x2="952.08" y2="789.01" stroke="#7a7a86" stroke-width="0.99" stroke-linejoin="round" stroke-linecap="round" fill="none" stroke-dasharray="12.41,12.41" opacity="0.50"/>
<line x1="1177.93" y1="664.30" x2="952.08" y2="789.01" stroke="#7a7a86" stroke-width="0.99" stroke-linejoin="round" stroke-linecap="round" fill="none" stroke-dasharray="12.41,12.41" opacity="0.50"/>
<line x1="238.85" y1="802.30" x2="426.63" y2="922.44" stroke="#7a7a86" stroke-width="0.99" stroke-linejoin="round" stroke-linecap="round" fill="none" stroke-dasharray="12.41,12.41" opacity="0.50"/>
<g><line x1="28" y1="1512" x2="648.3" y2="1512" stroke="#22222a" stroke-width="2"/><line x1="28" y1="1508" x2="28" y2="1516" stroke="#22222a" stroke-width="2"/><line x1="648.3" y1="1508" x2="648.3" y2="1516" stroke="#22222a" stroke-width="2"/><text x="656.3" y="1516" font-size="11" fill="#7a7a86">5 m</text></g>
</g></svg>